<svg width="117" height="45" viewBox="0 0 117 45" fill="none" xmlns="http://www.w3.org/2000/svg">
<g clip-path="url(#clip0)">
<path d="M18.3353 22.194C18.3325 21.5377 18.2009 20.9055 17.9405 20.2972C17.6918 19.6772 17.3496 19.1337 16.914 18.6668C16.4784 18.1882 15.967 17.8095 15.3798 17.5308C14.8044 17.2403 14.1885 17.0964 13.5323 17.0992C12.876 17.102 12.2554 17.216 11.6704 17.4411C11.0972 17.6662 10.5947 17.9965 10.1629 18.432C9.74291 18.8674 9.41123 19.4078 9.16789 20.0534C8.9245 20.6873 8.80456 21.4144 8.80806 22.2347C8.81141 23.0198 8.93749 23.7283 9.18628 24.36C9.43502 24.9801 9.77128 25.5118 10.1951 25.9553C10.6305 26.3988 11.1359 26.7423 11.7112 26.986C12.2981 27.2178 12.9197 27.3324 13.576 27.3296C14.2322 27.3268 14.8468 27.1835 15.4198 26.8998C16.0045 26.6044 16.5127 26.2213 16.9442 25.7507C17.3758 25.2684 17.7133 24.7221 17.9568 24.1116C18.2119 23.4894 18.3381 22.8502 18.3353 22.194ZM23.2 29.3803C23.2057 30.7045 22.959 31.9478 22.4601 33.1101C21.9611 34.2724 21.2741 35.289 20.3989 36.1599C19.5354 37.0308 18.5188 37.7207 17.3491 38.2296C16.1911 38.7384 14.95 38.9957 13.6258 39.0014L11.2175 38.9765L11.197 34.1777L13.5701 34.2027C14.3201 34.1995 14.9584 34.0972 15.4849 33.8957C16.0114 33.706 16.4556 33.4404 16.8174 33.099C17.1793 32.7693 17.4648 32.3872 17.6739 31.9528C17.8947 31.5182 18.0685 31.0604 18.1953 30.5794C18.0091 30.8849 17.7407 31.138 17.39 31.3387C17.0392 31.5277 16.6473 31.6817 16.2142 31.8008C15.7929 31.9315 15.348 32.0213 14.8794 32.0702C14.4226 32.119 13.995 32.1442 13.5965 32.1459C12.2723 32.1516 11.0233 31.9284 9.84948 31.4764C8.68739 31.0243 7.66509 30.3783 6.78259 29.5383C5.91175 28.6865 5.22176 27.6465 4.71261 26.4182C4.20345 25.1899 3.94557 23.8023 3.93897 22.2554C3.93291 20.8375 4.17923 19.5181 4.67793 18.2972C5.17663 17.0763 5.85767 16.0187 6.72104 15.1244C7.59614 14.23 8.61269 13.5284 9.77068 13.0195C10.9404 12.5106 12.1874 12.2533 13.5116 12.2477C14.1209 12.2451 14.7248 12.3187 15.3231 12.4685C15.9214 12.6183 16.5023 12.8267 17.066 13.0938C17.6296 13.361 18.1642 13.6751 18.6696 14.0362C19.1868 14.3973 19.6689 14.7878 20.1161 15.2078L21.9698 12.9674L23.1299 12.9625L23.2 29.3803ZM45.0362 22.08C45.0423 23.4862 44.7959 24.7998 44.2972 26.0207C43.7985 27.2298 43.1174 28.2816 42.254 29.1759C41.3906 30.0585 40.374 30.7601 39.2044 31.2807C38.0464 31.7896 36.7994 32.0469 35.4635 32.0526C34.1393 32.0582 32.8902 31.8116 31.7162 31.3127C30.5538 30.802 29.5313 30.1091 28.6487 29.234C27.7777 28.3471 27.0877 27.3012 26.5786 26.0963C26.0695 24.8797 25.812 23.5683 25.806 22.1621C25.7999 20.7324 26.0461 19.4071 26.5448 18.1862C27.0435 16.9653 27.7246 15.9136 28.588 15.031C29.4631 14.1366 30.4797 13.435 31.6377 12.9262C32.8074 12.4173 34.0543 12.16 35.3785 12.1543C36.7145 12.1486 37.9635 12.3835 39.1257 12.859C40.2996 13.3228 41.322 13.9922 42.1929 14.8674C43.0638 15.7309 43.7538 16.7768 44.263 18.0051C44.7721 19.2217 45.0298 20.58 45.0362 22.08ZM40.2023 22.1006C40.199 21.3272 40.0671 20.6305 39.8067 20.0105C39.5579 19.3787 39.2157 18.8411 38.7802 18.3977C38.3447 17.9425 37.8335 17.599 37.2465 17.3671C36.6713 17.1235 36.0555 17.003 35.3993 17.0058C34.743 17.0086 34.1225 17.1343 33.5376 17.3829C32.9644 17.6198 32.4619 17.9676 32.0303 18.4265C31.6103 18.8736 31.2786 19.4141 31.0353 20.0479C30.7918 20.6701 30.6717 21.3679 30.6751 22.1413C30.6782 22.8679 30.8041 23.5411 31.0528 24.1612C31.3016 24.7812 31.6378 25.3189 32.0617 25.7741C32.4972 26.2293 33.0027 26.5904 33.578 26.8575C34.1651 27.1128 34.7867 27.239 35.4429 27.2362C36.0992 27.2334 36.7139 27.1077 37.2871 26.8592C37.8719 26.6106 38.3802 26.2627 38.8119 25.8156C39.2436 25.3684 39.5811 24.8279 39.8245 24.194C40.0796 23.5601 40.2056 22.8623 40.2023 22.1006ZM58.0673 31.6045L47.0986 31.6513L47.0782 26.8701L58.0469 26.8233C58.375 26.8219 58.6557 26.7035 58.8891 26.4681C59.1225 26.2328 59.2385 25.951 59.2371 25.6229C59.2356 25.2831 59.1175 25.0609 58.8826 24.9564C58.6478 24.852 58.3663 24.8004 58.0382 24.8018L53.0461 24.8231C52.2141 24.8267 51.4341 24.6718 50.7062 24.3585C49.9783 24.0452 49.3436 23.6202 48.8023 23.0834C48.2609 22.535 47.8304 21.8981 47.5109 21.1729C47.2031 20.4477 47.0475 19.669 47.0439 18.837C47.0404 18.005 47.1894 17.225 47.4909 16.4972C47.8043 15.7693 48.2293 15.1346 48.766 14.5933C49.3028 14.0519 49.9338 13.6274 50.6591 13.3196C51.3843 13.0001 52.1629 12.8385 52.9949 12.835L62.7155 12.7935L62.7359 17.5747L53.0153 17.6162C52.6872 17.6176 52.4064 17.736 52.1731 17.9713C51.9397 18.2067 51.8237 18.4885 51.8251 18.8166C51.8266 19.1564 51.945 19.4489 52.1804 19.694C52.4158 19.9274 52.6975 20.0433 53.0257 20.0419L58.0178 20.0206C58.8381 20.0171 59.6121 20.1544 60.3399 20.4326C61.0676 20.699 61.702 21.0772 62.2432 21.5671C62.7844 22.0569 63.2146 22.6469 63.534 23.3369C63.8533 24.027 64.0148 24.7822 64.0183 25.6025C64.0218 26.4345 63.8669 27.2145 63.5536 27.9424C63.2403 28.6586 62.8153 29.2932 62.2785 29.8463C61.7418 30.3876 61.1108 30.8181 60.3856 31.1376C59.6604 31.4454 58.8876 31.601 58.0673 31.6045ZM76.946 31.5239L65.9774 31.5707L65.9569 26.7895L76.9256 26.7427C77.2537 26.7413 77.5345 26.6229 77.7678 26.3875C78.0012 26.1522 78.1172 25.8704 78.1158 25.5423C78.1143 25.2024 77.9962 24.9803 77.7614 24.8758C77.5266 24.7714 77.2451 24.7198 76.917 24.7212L71.9248 24.7425C71.0928 24.7461 70.3128 24.5912 69.5849 24.2779C68.857 23.9646 68.2224 23.5396 67.681 23.0028C67.1396 22.4544 66.7092 21.8175 66.3896 21.0923C66.0819 20.3671 65.9262 19.5884 65.9226 18.7564C65.9191 17.9244 66.0681 17.1444 66.3697 16.4166C66.683 15.6887 67.108 15.054 67.6448 14.5127C68.1815 13.9713 68.8125 13.5467 69.5378 13.239C70.263 12.9195 71.0416 12.7579 71.8736 12.7544L81.5942 12.7129L81.6147 17.4941L71.894 17.5356C71.5659 17.537 71.2852 17.6554 71.0518 17.8907C70.8184 18.1261 70.7024 18.4079 70.7038 18.736C70.7053 19.0758 70.8237 19.3683 71.0592 19.6134C71.2945 19.8468 71.5763 19.9627 71.9044 19.9613L76.8965 19.94C77.7168 19.9365 78.4909 20.0738 79.2186 20.352C79.9463 20.6184 80.5808 20.9966 81.1219 21.4864C81.6631 21.9763 82.0933 22.5663 82.4127 23.2563C82.7321 23.9464 82.8935 24.7016 82.897 25.5219C82.9005 26.3539 82.7457 27.1339 82.4324 27.8618C82.119 28.578 81.694 29.2126 81.1573 29.7657C80.6205 30.307 79.9895 30.7375 79.2643 31.057C78.5391 31.3648 77.7663 31.5204 76.946 31.5239ZM91.0468 7.52207C91.0487 7.96738 90.9626 8.38377 90.7884 8.77123C90.626 9.15865 90.399 9.49947 90.1072 9.79368C89.8155 10.0762 89.4708 10.3062 89.0731 10.4837C88.6871 10.6494 88.2714 10.7332 87.8261 10.7351C87.3808 10.737 86.9586 10.6567 86.5594 10.4944C86.172 10.3203 85.8311 10.0932 85.537 9.8132C85.2545 9.52143 85.0245 9.18257 84.8471 8.7966C84.6814 8.41059 84.5976 7.99492 84.5957 7.54962C84.5938 7.11603 84.6741 6.70552 84.8365 6.31811C85.0106 5.91892 85.2376 5.57811 85.5177 5.29566C85.8094 5.00144 86.1483 4.77148 86.5343 4.60576C86.932 4.42828 87.3535 4.33859 87.7988 4.33669C88.2441 4.33479 88.6605 4.4209 89.0479 4.59503C89.4471 4.75739 89.7937 4.98443 90.088 5.27615C90.3821 5.55614 90.6121 5.89501 90.7779 6.29274C90.9553 6.6787 91.0449 7.08848 91.0468 7.52207ZM90.3228 31.4668L85.4889 31.4874L85.4085 12.6614L90.2425 12.6408L90.3228 31.4668ZM98.8612 38.6023L94.0272 38.6229L93.9162 12.6251L95.0764 12.6201L97.0021 14.8795C97.4339 14.4675 97.9069 14.0788 98.4209 13.7133C98.935 13.3478 99.4669 13.035 100.017 12.7748C100.578 12.5029 101.157 12.2895 101.754 12.1346C102.351 11.9797 102.954 11.901 103.564 11.8984C104.888 11.8927 106.131 12.1276 107.293 12.6031C108.467 13.0669 109.489 13.7305 110.36 14.594C111.243 15.4574 111.939 16.5033 112.448 17.7316C112.957 18.9482 113.215 20.3006 113.221 21.7889C113.228 23.3357 112.982 24.7313 112.483 25.9756C111.985 27.2082 111.298 28.26 110.422 29.1309C109.559 29.9901 108.542 30.6507 107.372 31.1127C106.214 31.5747 104.973 31.8085 103.649 31.8142C103.227 31.816 102.805 31.7709 102.382 31.679C101.972 31.587 101.561 31.4657 101.15 31.3151C100.751 31.1527 100.352 30.9728 99.9528 30.7753C99.5652 30.5777 99.1893 30.3742 98.8252 30.1648L98.8612 38.6023ZM108.405 21.8094C108.401 21.0126 108.269 20.2983 108.009 19.6666C107.76 19.0348 107.418 18.5031 106.983 18.0713C106.547 17.6279 106.036 17.2902 105.449 17.0583C104.862 16.8265 104.24 16.7119 103.584 16.7147C102.928 16.7175 102.307 16.8374 101.722 17.0742C101.149 17.3111 100.647 17.6531 100.215 18.1002C99.7833 18.5357 99.4399 19.0703 99.1848 19.7042C98.9414 20.3381 98.8214 21.0535 98.8248 21.8503C98.8281 22.612 98.9541 23.3088 99.2029 23.9405C99.4634 24.5722 99.8114 25.1098 100.247 25.5533C100.682 25.9967 101.188 26.3403 101.763 26.5839C102.35 26.8275 102.972 26.9479 103.628 26.9451C104.284 26.9423 104.905 26.8166 105.49 26.568C106.074 26.3194 106.583 25.9715 107.014 25.5244C107.446 25.0772 107.784 24.5367 108.027 23.9028C108.282 23.2689 108.408 22.5711 108.405 21.8094Z" fill="url(#paint0_linear)"/>
</g>
<defs>
<linearGradient id="paint0_linear" x1="43.5" y1="2.5" x2="61.5" y2="46" gradientUnits="userSpaceOnUse">
<stop offset="0.0305851" stop-color="#7400B8"/>
<stop offset="0.472455" stop-color="#48BFE3"/>
<stop offset="0.897701" stop-color="#80FFDB"/>
</linearGradient>
<clipPath id="clip0">
<rect width="117" height="45" fill="white"/>
</clipPath>
</defs>
</svg>
